<?xml version="1.0" standalone="no"?><!DOCTYPE svg PUBLIC "-//W3C//DTD SVG 1.1//EN" "http://www.w3.org/Graphics/SVG/1.1/DTD/svg11.dtd"><svg t="1624866691470" class="icon" viewBox="0 0 1024 1024" version="1.1" xmlns="http://www.w3.org/2000/svg" p-id="1777" xmlns:xlink="http://www.w3.org/1999/xlink" width="200" height="200"><defs><style type="text/css"></style></defs><path d="M885.3 726.1H152.9c-23.6 0-42.7-19.2-42.7-42.7V170.7c0-23.6 19.2-42.7 42.7-42.7h732.4c23.6 0 42.7 19.2 42.7 42.7v512.7c0 23.5-19.2 42.7-42.7 42.7zM152.9 164.6c-3.3 0-6.1 2.8-6.1 6.1v512.7c0 3.3 2.8 6.1 6.1 6.1h732.4c3.3 0 6.1-2.8 6.1-6.1V170.7c0-3.3-2.8-6.1-6.1-6.1H152.9z"  p-id="1778"></path><path d="M466.9 588.3c-6.7 0-13-3.2-16.9-8.9l-93.2-135.5H213.9c-10.1 0-18.3-8.2-18.3-18.3s8.2-18.3 18.3-18.3h146.2c10.1 0 19.5 4.9 25.2 13.2l72.6 105.7L493 323.8c2.4-13.9 13.5-24 27.6-25.2 14.1-1.2 26.6 7 31.3 20.4l68.9 198.4 30.7-89.4c4.3-12.5 16-20.8 29.2-20.8h143.6c10.1 0 18.3 8.2 18.3 18.3s-8.2 18.3-18.3 18.3H684.7l-44.5 129.5c-2.9 8.3-10.6 13.9-19.4 13.9-8.7 0-16.5-5.5-19.4-13.8l-76.4-220-37.8 217.8c-1.4 8.3-7.7 14.8-15.9 16.6-1.4 0.3-2.9 0.5-4.4 0.5zM763.2 843H275c-10.1 0-18.3-8.2-18.3-18.3 0-10.1 8.2-18.3 18.3-18.3h488.3c10.1 0 18.3 8.2 18.3 18.3-0.1 10.1-8.3 18.3-18.4 18.3z"  p-id="1779"></path></svg>