<?xml version="1.0" standalone="no"?><!DOCTYPE svg PUBLIC "-//W3C//DTD SVG 1.1//EN" "http://www.w3.org/Graphics/SVG/1.1/DTD/svg11.dtd"><svg t="1622538135715" class="icon" viewBox="0 0 1024 1024" version="1.1" xmlns="http://www.w3.org/2000/svg" p-id="2714" xmlns:xlink="http://www.w3.org/1999/xlink" width="200" height="200"><defs><style type="text/css"></style></defs><path d="M919.8 253.5L748.2 77c-7-7.2-16.5-11.2-26.5-11.2h-587c-20.4 0-36.9 16.5-36.9 36.9v820.5c0 20.4 16.5 36.9 36.9 36.9h758.6c20.4 0 36.9-16.5 36.9-36.9v-644c0-9.6-3.8-18.8-10.4-25.7z m-576-113.8h219.6V247H343.8V139.7z m512.5 746.6H171.6V139.7h98.3V284c0 20.4 16.5 36.9 36.9 36.9h293.5c20.4 0 36.9-16.5 36.9-36.9V139.7h68.9l150.2 154.6v592z" p-id="2715"></path><path d="M240.8 500.4v226.3c0 20.4 16.5 36.9 36.9 36.9h472.5c20.4 0 36.9-16.5 36.9-36.9V500.4c0-20.4-16.5-36.9-36.9-36.9H277.7c-20.4 0-36.9 16.5-36.9 36.9z m73.9 37h398.6v152.4H314.7V537.4z" p-id="2716"></path></svg>