<?xml version="1.0" standalone="no"?><!DOCTYPE svg PUBLIC "-//W3C//DTD SVG 1.1//EN" "http://www.w3.org/Graphics/SVG/1.1/DTD/svg11.dtd"><svg t="1622093409931" class="icon" viewBox="0 0 1024 1024" version="1.1" xmlns="http://www.w3.org/2000/svg" p-id="3838" xmlns:xlink="http://www.w3.org/1999/xlink" width="200" height="200"><defs><style type="text/css"></style></defs><path d="M604.672 702.464H491.008v-76.8h113.664c11.264 0 20.992-9.216 20.992-20.992V120.832c0-11.264-9.216-20.992-20.992-20.992H120.832c-11.264 0-20.992 9.216-20.992 20.992v483.84c0 11.264 9.216 20.992 20.992 20.992h113.664v76.8H120.832c-53.76 0-97.792-44.032-97.792-97.792V120.832c0-53.76 44.032-97.792 97.792-97.792h483.84c53.76 0 97.792 44.032 97.792 97.792v483.84c0 53.76-44.032 97.792-97.792 97.792z" p-id="3839"></path><path d="M903.168 1000.96H419.328c-53.76 0-97.792-44.032-97.792-97.792V419.328c0-53.76 44.032-97.792 97.792-97.792h113.664v76.8H419.328c-11.264 0-20.992 9.216-20.992 20.992v483.84c0 11.264 9.216 20.992 20.992 20.992h483.84c11.264 0 20.992-9.216 20.992-20.992V419.328c0-11.264-9.216-20.992-20.992-20.992h-113.664v-76.8h113.664c53.76 0 97.792 44.032 97.792 97.792v483.84c0 53.76-44.032 97.792-97.792 97.792z" p-id="3840"></path></svg>