<?xml version="1.0" standalone="no"?><!DOCTYPE svg PUBLIC "-//W3C//DTD SVG 1.1//EN" "http://www.w3.org/Graphics/SVG/1.1/DTD/svg11.dtd"><svg t="1624538082464" class="icon" viewBox="0 0 1024 1024" version="1.1" xmlns="http://www.w3.org/2000/svg" p-id="2466" xmlns:xlink="http://www.w3.org/1999/xlink" width="200" height="200"><defs><style type="text/css"></style></defs><path d="M512 149.333333a170.666667 170.666667 0 0 0-121.386667 290.645334 138.666667 138.666667 0 0 1-86.698666 242.602666l-4.714667 0.085334H213.333333a21.333333 21.333333 0 0 0-21.184 18.837333L192 704v149.333333a21.333333 21.333333 0 0 0 18.837333 21.184L213.333333 874.666667h597.333334a21.333333 21.333333 0 0 0 21.184-18.837334L832 853.333333v-149.333333a21.333333 21.333333 0 0 0-18.837333-21.184L810.666667 682.666667h-85.333334a138.666667 138.666667 0 0 1-94.72-239.936l0.277334-0.298667A170.666667 170.666667 0 0 0 512 149.333333z m224 597.333334a32 32 0 0 1 0 64h-448a32 32 0 0 1 0-64h448zM185.173333 619.029333h-0.042666l-0.810667 0.106667-1.749333 0.256 2.602666-0.362667z m157.141334-136.917333l-0.810667-0.853333 0.405333 0.405333-1.685333-1.792a236.074667 236.074667 0 0 1-37.354667-53.333333l-1.685333-3.328-1.557333-3.264A233.749333 233.749333 0 0 1 277.333333 320c0-129.6 105.066667-234.666667 234.666667-234.666667s234.666667 105.066667 234.666667 234.666667c0 38.656-9.344 75.136-25.898667 107.285333l-1.194667 2.24c-0.917333 1.792-1.898667 3.562667-2.901333 5.333334l-0.64 1.109333a202.88 202.88 0 0 1-8.512 13.824l-0.170667 0.277333a235.221333 235.221333 0 0 1-10.666666 14.72l-2.709334 3.413334a241.344 241.344 0 0 1-12.522666 14.144l-2.346667 2.389333-2.346667 2.346667-0.874666 0.874666a74.922667 74.922667 0 0 0-25.173334 56.042667 74.666667 74.666667 0 0 0 72.661334 74.645333l0.021333 0.021334H832a64.704 64.704 0 0 1 9.706667 0.725333A64 64 0 0 1 896 682.666667v192a64 64 0 0 1-64 64H192a64 64 0 0 1-64-64v-192a64 64 0 0 1 53.76-63.189334l2.56-0.341333 0.64-0.064 0.170667-0.042667 0.341333-0.042666-0.298667 0.042666 2.197334-0.213333 0.96-0.042667C189.525333 618.709333 190.762667 618.666667 192 618.666667h108.608v-0.042667l2.453333-0.064a74.666667 74.666667 0 0 0 44.245334-131.477333l0.704 0.768-4.842667-4.864-0.853333-0.874667z" p-id="2467"></path></svg>