<?xml version="1.0" standalone="no"?><!DOCTYPE svg PUBLIC "-//W3C//DTD SVG 1.1//EN" "http://www.w3.org/Graphics/SVG/1.1/DTD/svg11.dtd"><svg t="1622703007619" class="icon" viewBox="0 0 1024 1024" version="1.1" xmlns="http://www.w3.org/2000/svg" p-id="6478" xmlns:xlink="http://www.w3.org/1999/xlink" width="200" height="200"><defs><style type="text/css"></style></defs><path d="M533.32992 962.00192H139.58144a28.12416 28.12416 0 0 1-28.12416-28.12416V90.12736a28.12416 28.12416 0 0 1 28.12416-28.12416h731.24864a28.12416 28.12416 0 0 1 28.12928 28.12416v393.74848a28.12416 28.12416 0 1 1-56.24832 0V118.25152H167.7056v787.50208h365.62432a28.12416 28.12416 0 1 1 0 56.24832z" p-id="6479"></path><path d="M702.08 343.24992H308.33152a28.12416 28.12416 0 1 1 0-56.24832h393.74848a28.12416 28.12416 0 1 1 0 56.24832zM477.0816 680.75008H308.33152a28.12416 28.12416 0 1 1 0-56.24832H477.0816a28.12416 28.12416 0 1 1 0 56.24832zM702.08 512H308.33152a28.12416 28.12416 0 1 1 0-56.24832h393.74848a28.12416 28.12416 0 1 1 0 56.24832zM988.4928 749.11744c-1.98144-11.33056-8.32-18.60096-16.13312-18.60096h-1.94048c-27.1616 0-49.25952-23.41888-49.25952-52.25984 0-7.90016 2.9184-16.49152 4.18304-19.81952l0.04608-0.128 0.04096-0.09216c4.17792-9.92768 0.96768-22.10816-7.4752-28.40064l-0.46592-0.33792-47.39584-27.89888-0.512-0.26112a21.72416 21.72416 0 0 0-9.12384-1.94048c-6.79936 0-13.42976 2.8416-17.74592 7.60832-2.95424 3.29216-8.9088 8.87808-16.01024 13.77792-8.576 5.83168-16.43008 8.97024-22.64064 8.97024-6.50752 0-14.2336-3.05152-22.98368-9.23136-6.84032-4.80768-12.88704-10.4704-15.96416-13.952-4.352-4.84864-11.02336-7.7824-17.86368-7.7824a21.9648 21.9648 0 0 0-9.00096 1.85856l-0.50688 0.26112-49.13664 28.57984-0.54272 0.33792c-8.19712 6.08768-11.44832 17.80224-7.81312 27.52l0.30208 0.71168c0.03584 0.128 4.34688 10.44992 4.34688 20.13184 0 28.84096-22.13376 52.25984-49.2544 52.25984h-2.02752c-7.77216 0-14.1056 7.31136-16.13312 18.60096l-0.04096 0.25088c-0.88576 5.37088-3.88608 24.04864-3.88608 39.07072 0 15.81056 3.2512 35.46112 3.92704 39.2704 1.99168 11.33056 8.32 18.60096 16.13312 18.60096h1.95072c27.1616 0 49.2544 23.41888 49.2544 52.2496 0 9.5488-4.26496 20.08064-4.31104 20.16768l-0.33792 0.79872h0.04608c-3.59424 9.68192-0.33792 21.3504 7.85408 27.43808l0.46592 0.33792 46.464 27.52 0.512 0.26112a21.65248 21.65248 0 0 0 9.1648 1.98144c6.8864 0 13.5168-2.9184 17.82784-7.90016 2.4064-2.80064 8.52992-8.97024 16.13312-14.41792 8.78592-6.33856 16.896-9.71776 23.40352-9.71776 6.58432 0 14.65344 3.3792 23.3984 9.71776 7.0144 5.10976 13.21984 11.20256 16.38912 14.91968 4.31104 5.02784 11.02336 8.06912 17.95584 8.06912 3.2512 0 6.25664-0.61952 8.86784-1.81248l0.50688-0.26112 48.19968-28.31872 0.50688-0.33792c8.20224-6.08768 11.4944-17.75104 7.8592-27.47904h0.04608l-0.30208-0.72192c-0.04096-0.11776-4.38784-10.56768-4.38784-20.16256 0-28.83072 22.13376-52.25984 49.24928-52.25984h1.95072c7.81312 0 14.14656-7.31136 16.17408-18.60096l0.04096-0.11776c0.04608-0.22016 3.93728-22.07232 3.93728-39.18848-0.00512-15.83616-3.26656-35.456-3.9424-39.2704z m-40.7808 68.61312l-0.18944 1.152-1.0496 0.08192c-15.80544 1.13152-30.51008 8.448-41.43104 20.6592-11.2384 12.48256-17.4336 28.87168-17.4336 46.10048 0 10.4192 3.39968 20.64896 4.84864 24.57088l0.49152 1.29024-39.7568 23.26016h-0.32768c-0.08192 0-0.18944-0.04096-0.26624-0.04096l-0.1536-0.04096-0.25088 0.04096-0.42496-0.45056a110.3872 110.3872 0 0 0-14.55104-13.71136c-12.3136-9.74848-24.1152-14.72-35.01056-14.72-10.71616 0-22.35904 4.85888-34.74944 14.41792-7.95136 6.20032-13.47072 12.29824-14.52032 13.45024l-0.40448 0.45056h-0.42496l-0.14336 0.03072c-0.0768 0.03072-0.1792 0.03072-0.26112 0.03072h-0.32256l-38.38464-22.69184 0.49152-1.28c1.15712-2.97984 4.88448-13.58848 4.88448-24.61184 0-17.25952-6.18496-33.61792-17.42336-46.10048-10.96704-12.2112-25.67168-19.52768-41.42592-20.6592l-1.0496-0.08192-0.18944-1.152c-0.67584-4.11136-2.90304-18.41152-2.90304-29.312 0-10.42944 2.01728-23.95136 2.90304-29.3376l0.18944-1.152 1.0496-0.07168c15.78496-1.13152 30.48448-8.448 41.42592-20.66944 11.2384-12.47232 17.42336-28.87168 17.42336-46.08 0-10.43968-3.38944-20.66944-4.84352-24.59136l-0.48128-1.25952 40.67328-23.64928 0.45568 0.10752c0.32256 0.08192 0.5888 0.14848 0.81408 0.25088l0.2304 0.11776 0.13824 0.1792c0.64512 0.6912 6.31296 6.89152 14.38208 12.96896 12.12928 9.14944 23.65952 13.82912 34.18112 13.82912 10.45504 0 21.84704-4.57216 33.8944-13.55776 7.13216-5.38112 12.73856-10.98752 14.29504-12.6976l0.14336-0.19968 0.18944-0.1024a3.24096 3.24096 0 0 1 0.82432-0.27136l0.45568-0.10752 39.26016 23.13216-0.4864 1.25952c-1.15712 3.04128-4.8896 13.59872-4.8896 24.59136 0 17.23904 6.1952 33.60768 17.4336 46.08 10.96704 12.22144 25.6768 19.53792 41.43104 20.66944l1.0496 0.07168 0.18944 1.152c0.84992 5.31968 2.89792 18.90816 2.89792 29.3376 0 10.41408-2.01728 23.936-2.89792 29.31712z" p-id="6480"></path><path d="M802.98496 721.65888c-36.6848 0-66.55488 29.88032-66.55488 66.56s29.824 66.56 66.55488 66.56c36.6848 0 66.56512-29.88032 66.56512-66.56s-29.88032-66.56-66.56512-66.56z m0.02048 104.96c-21.15072 0-38.41536-17.21856-38.41536-38.4s17.21856-38.4 38.41536-38.4c21.15072 0 38.38464 17.21856 38.38464 38.4s-17.2032 38.4-38.38464 38.4z" p-id="6481"></path></svg>