<?xml version="1.0" standalone="no"?><!DOCTYPE svg PUBLIC "-//W3C//DTD SVG 1.1//EN" "http://www.w3.org/Graphics/SVG/1.1/DTD/svg11.dtd"><svg t="1623287728938" class="icon" viewBox="0 0 1024 1024" version="1.1" xmlns="http://www.w3.org/2000/svg" p-id="2567" xmlns:xlink="http://www.w3.org/1999/xlink" width="200" height="200"><defs><style type="text/css"></style></defs><path d="M207.7 928.3h-112c-17.6 0-32-14.4-32-32V352.2c0-17.6 14.4-32 32-32h112c17.6 0 32 14.4 32 32v544.1c0 17.6-14.4 32-32 32zM447.5 928.3h-112c-17.6 0-32-14.4-32-32V130.2c0-17.6 14.4-32 32-32h112c17.6 0 32 14.4 32 32v766.1c0 17.6-14.4 32-32 32zM687.2 928.3h-112c-17.6 0-32-14.4-32-32V545.2c0-17.6 14.4-32 32-32h112c17.6 0 32 14.4 32 32v351.1c0 17.6-14.4 32-32 32zM927 928.3H815c-17.6 0-32-14.4-32-32V288c0-17.6 14.4-32 32-32h112c17.6 0 32 14.4 32 32v608.3c0 17.6-14.4 32-32 32z" p-id="2568"></path></svg>